<svg xmlns="http://www.w3.org/2000/svg" xmlns:xlink="http://www.w3.org/1999/xlink" width="500" zoomAndPan="magnify" viewBox="0 0 375 374.999991" height="500" preserveAspectRatio="xMidYMid meet" version="1.0"><defs><g/><clipPath id="3480f9fb5d"><path d="M 112.5 47.105469 L 262.5 47.105469 L 262.5 197.105469 L 112.5 197.105469 Z M 112.5 47.105469 " clip-rule="nonzero"/></clipPath></defs><g clip-path="url(#3480f9fb5d)"><path fill="#a44f30" d="M 219.953125 128.421875 C 219.96875 128.371094 232.371094 99.417969 231.722656 99.089844 C 231.101562 98.75 223.09375 115.121094 217.253906 126.207031 L 215.414062 125.246094 C 220.507812 113.773438 228.402344 97.347656 227.765625 97.007812 C 227.132812 96.683594 218.621094 112.777344 212.417969 123.667969 L 210.578125 122.707031 C 216.015625 111.410156 224.429688 95.265625 223.796875 94.925781 C 223.160156 94.597656 214.109375 110.417969 207.550781 121.128906 L 205.710938 120.152344 C 211.523438 109.050781 220.441406 93.167969 219.808594 92.839844 C 219.171875 92.5 205.972656 113.59375 202.375 119.191406 C 199.25 124.074219 199.460938 130.863281 203.464844 134.507812 C 197.980469 144.09375 192.511719 153.664062 187.027344 163.25 C 181.414062 153.679688 175.796875 144.109375 170.164062 134.539062 C 176.707031 129.460938 177.800781 119.417969 172.445312 111.558594 C 166.8125 103.160156 155.046875 93.832031 148.03125 97.347656 C 141.242188 101.289062 142.578125 116.246094 146.5 125.554688 C 150.128906 134.34375 159.148438 138.949219 166.960938 136.265625 C 172.460938 147.367188 177.945312 158.464844 183.429688 169.566406 C 181.023438 173.765625 178.628906 177.964844 176.21875 182.164062 C 147.835938 176.859375 126.351562 152.003906 126.351562 122.105469 C 126.351562 88.332031 153.726562 60.957031 187.5 60.957031 C 221.273438 60.957031 248.648438 88.332031 248.648438 122.105469 C 248.648438 152.214844 226.855469 177.183594 198.191406 182.261719 C 195.703125 178.011719 193.210938 173.765625 190.722656 169.535156 C 196.0625 158.433594 201.382812 147.332031 206.722656 136.214844 C 211.929688 137.535156 217.414062 134.28125 219.9375 128.402344 C 222.589844 122.25 219.953125 128.421875 219.953125 128.421875 Z M 193.132812 189.179688 C 191.257812 189.324219 189.402344 189.457031 187.5 189.457031 C 185.417969 189.457031 183.347656 189.339844 181.316406 189.144531 C 180.144531 191.570312 178.988281 193.980469 177.832031 196.40625 C 181.003906 196.828125 184.210938 197.105469 187.5 197.105469 C 190.625 197.105469 193.699219 196.84375 196.746094 196.46875 C 195.539062 194.046875 194.335938 191.605469 193.132812 189.179688 Z M 187.5 47.105469 C 146.140625 47.105469 112.5 80.746094 112.5 122.105469 C 112.5 157.082031 136.605469 186.460938 169.058594 194.710938 C 170.359375 192.417969 171.664062 190.140625 172.980469 187.84375 C 142.804688 181.1875 120.132812 154.25 120.132812 122.105469 C 120.132812 84.964844 150.359375 54.753906 187.5 54.753906 C 224.640625 54.753906 254.851562 84.964844 254.851562 122.105469 C 254.851562 154.429688 231.964844 181.480469 201.546875 187.957031 C 202.878906 190.253906 204.230469 192.53125 205.566406 194.808594 C 238.199219 186.6875 262.5 157.230469 262.5 122.105469 C 262.5 80.746094 228.855469 47.105469 187.5 47.105469 Z M 190.136719 183.125 C 189.128906 181.089844 188.132812 179.070312 187.125 177.035156 C 186.164062 179.054688 185.1875 181.074219 184.226562 183.089844 C 185.320312 183.140625 186.394531 183.253906 187.5 183.253906 C 188.394531 183.253906 189.257812 183.15625 190.136719 183.125 Z M 190.136719 183.125 " fill-opacity="1" fill-rule="nonzero"/></g><path stroke-linecap="butt" transform="matrix(0.75, 0, 0, 0.75, 24.544888, 123.519762)" fill="none" stroke-linejoin="miter" d="M 72.335987 106.322616 C 64.945362 106.109074 58.408903 104.640324 52.731819 101.916365 C 47.049527 99.176782 42.596402 94.911157 39.372443 89.124698 C 36.158902 83.322614 34.554735 75.838239 34.554735 66.681988 C 34.554735 58.926779 36.07036 52.213237 39.10161 46.530945 C 42.127652 40.833028 46.466194 36.400736 52.106819 33.228861 C 57.768278 30.051777 64.51307 28.38511 72.335987 28.223652 L 73.768279 28.223652 C 80.945363 28.223652 86.950572 29.150736 91.778697 31.010111 C 96.612031 32.848652 100.263072 35.301778 102.731823 38.364278 C 105.221406 41.431986 106.466198 44.775737 106.466198 48.395528 C 106.466198 50.760112 105.96099 53.218445 104.950573 55.780946 C 103.960989 58.322612 102.533906 60.458029 100.679739 62.192404 C 98.841197 63.921571 96.596406 64.786155 93.945364 64.786155 C 91.653697 64.786155 89.700572 64.343446 88.075572 63.463238 C 86.450572 62.577821 84.820363 61.692404 83.179738 60.812196 C 81.559946 59.926779 79.601613 59.484071 77.309946 59.484071 C 74.445362 59.484071 72.252654 60.333029 70.742237 62.025738 C 69.226612 63.723654 68.471404 65.786155 68.471404 68.218446 C 68.471404 70.510113 69.226612 72.431988 70.742237 73.978863 C 72.252654 75.530947 74.445362 76.306989 77.309946 76.306989 C 79.601613 76.306989 81.559946 75.86428 83.179738 74.984072 C 84.820363 74.098655 86.450572 73.234072 88.075572 72.385113 C 89.700572 71.536155 91.653697 71.11428 93.945364 71.11428 C 96.450572 71.11428 98.638072 71.942405 100.513072 73.603863 C 102.408906 75.260114 103.867239 77.327822 104.898489 79.796572 C 105.940156 82.265322 106.466198 84.796573 106.466198 87.395531 C 106.466198 92.786156 103.705781 97.291365 98.190156 100.916365 C 92.690155 104.520532 84.54953 106.322616 73.768279 106.322616 Z M 148.773492 28.223652 C 155.408909 28.223652 160.945368 28.978861 165.37766 30.494486 C 169.81516 32.010111 173.356827 34.119486 176.007869 36.822611 C 178.674536 39.510111 180.664119 42.645528 181.981828 46.23407 C 183.315161 49.822612 184.179745 53.661154 184.580786 57.754904 C 184.992245 61.848654 185.200578 66.041363 185.200578 70.327822 C 185.200578 70.187197 185.184953 71.499697 185.148495 74.280947 C 185.112036 77.036155 185.054745 81.921572 184.987036 88.937198 C 184.987036 90.55699 184.85162 92.36949 184.580786 94.36949 C 184.325578 96.353865 183.669328 98.27574 182.606828 100.129907 C 181.539119 101.973657 179.846411 103.484074 177.518286 104.676782 C 175.195369 105.848657 171.992244 106.431991 167.919327 106.431991 C 163.934952 106.431991 160.799535 105.848657 158.507868 104.676782 C 156.221409 103.484074 154.533909 101.973657 153.450576 100.129907 C 152.388076 98.27574 151.731826 96.353865 151.476617 94.36949 C 151.226617 92.36949 151.101617 90.55699 151.101617 88.937198 L 151.101617 86.499698 C 153.007868 85.833031 154.585993 84.619489 155.830784 82.853864 C 157.09641 81.067406 157.804743 78.95803 157.966201 76.525739 L 155.184951 76.525739 C 155.039118 79.265322 154.210993 81.228864 152.695368 82.416364 C 151.179742 83.588239 149.502659 84.176781 147.664117 84.176781 C 145.80995 84.176781 144.101617 83.588239 142.554742 82.416364 C 141.002658 81.228864 140.1537 79.265322 140.013075 76.525739 L 137.252658 76.525739 C 137.398492 78.95803 138.0912 81.067406 139.335992 82.853864 C 140.596408 84.619489 142.195367 85.833031 144.12245 86.499698 L 144.12245 88.937198 C 144.12245 90.55699 143.987034 92.36949 143.7162 94.36949 C 143.4662 96.353865 142.794325 98.27574 141.7162 100.129907 C 140.6537 101.973657 138.976617 103.484074 136.68495 104.676782 C 134.393283 105.848657 131.257866 106.431991 127.273491 106.431991 C 123.216199 106.431991 120.028699 105.848657 117.700574 104.676782 C 115.372448 103.484074 113.669323 101.973657 112.591198 100.129907 C 111.52349 98.27574 110.856823 96.353865 110.58599 94.36949 C 110.33599 92.36949 110.21099 90.55699 110.21099 88.937198 C 110.138073 81.921572 110.080781 77.036155 110.049531 74.280947 C 110.013073 71.499697 109.99224 70.187197 109.99224 70.327822 C 109.99224 66.041363 110.190156 61.848654 110.58599 57.754904 C 111.002657 53.661154 111.877657 49.822612 113.21099 46.23407 C 114.544323 42.645528 116.539115 39.510111 119.190157 36.822611 C 121.856824 34.119486 125.398491 32.010111 129.815158 30.494486 C 134.252658 28.978861 139.794325 28.223652 146.445367 28.223652 Z M 147.987034 66.327821 C 149.466201 66.181988 150.351617 65.723655 150.638076 64.947613 C 150.945367 64.171571 151.101617 63.499696 151.101617 62.921571 L 151.101617 55.051779 C 151.101617 54.458029 150.929742 53.73407 150.585992 52.885112 C 150.263076 52.041362 149.289117 51.614279 147.664117 51.614279 C 146.257867 51.687195 145.382867 52.129904 145.039117 52.942404 C 144.7162 53.754904 144.554742 54.458029 144.554742 55.051779 L 144.554742 62.921571 C 144.554742 63.499696 144.7162 64.208029 145.039117 65.056988 C 145.382867 65.905946 146.367242 66.327821 147.987034 66.327821 Z M 222.41933 56.265321 C 226.783914 56.265321 231.252664 56.635112 235.835998 57.374696 C 240.414123 58.114279 244.658915 59.431988 248.570374 61.322613 C 252.481832 63.197613 255.638083 65.812196 258.039124 69.166363 C 260.434958 72.52053 261.632875 76.859072 261.632875 82.176781 C 261.632875 83.510114 261.445375 85.197614 261.065166 87.234073 C 260.705791 89.249698 259.92975 91.36949 258.74225 93.58824 C 257.570374 95.80699 255.820374 97.879907 253.492249 99.80699 C 251.169332 101.718449 248.065166 103.286157 244.190165 104.515324 C 240.315165 105.723657 235.45579 106.322616 229.612039 106.322616 C 220.54433 106.322616 213.237038 105.687199 207.679746 104.405949 C 202.148496 103.109074 198.080787 101.223657 195.487037 98.754907 C 192.908912 96.265323 191.471412 93.291365 191.184953 89.827823 C 190.825578 84.728864 191.341203 81.067406 192.72662 78.848655 C 194.13287 76.629905 196.278704 75.234072 199.164121 74.655947 C 203.528704 76.786155 208.033913 78.42678 212.684955 79.577822 C 217.335997 80.713239 222.059955 81.280947 226.856831 81.280947 C 229.002664 81.280947 231.101623 81.176781 233.158915 80.958031 L 232.940165 78.197614 C 232.054748 78.27053 231.174539 78.306989 230.289123 78.306989 C 229.408914 78.306989 228.523498 78.306989 227.638081 78.306989 C 222.752664 78.306989 217.79433 77.848655 212.768288 76.92678 C 207.752663 75.98928 203.294329 74.234072 199.377662 71.655947 L 199.273496 71.655947 C 196.096412 69.510113 193.700579 66.744488 192.075578 63.353863 C 190.455787 59.947613 189.643287 56.249696 189.643287 52.26532 C 189.643287 50.947612 189.825578 49.270529 190.184953 47.23407 C 190.565162 45.197612 191.341203 43.098653 192.513079 40.931986 C 193.700579 38.754903 195.455787 36.708028 197.783912 34.796569 C 200.112037 32.864277 203.210996 31.286152 207.085996 30.062194 C 210.960996 28.838236 215.815163 28.223652 221.63808 28.223652 C 230.721414 28.223652 238.033915 28.874694 243.570374 30.171569 C 249.122457 31.468444 253.205791 33.333027 255.820374 35.770528 C 258.434958 38.202819 259.856833 41.161153 260.091208 44.64032 C 260.450583 49.723654 259.92975 53.473654 258.5235 55.890321 C 257.138083 58.286154 254.997458 59.775738 252.112041 60.348654 C 247.825582 58.223654 243.335999 56.609071 238.648498 55.510112 C 233.960998 54.390321 229.216206 53.833029 224.419331 53.833029 C 222.278705 53.833029 220.096414 53.942404 217.877664 54.155946 L 218.20058 56.374696 C 218.867247 56.301779 219.554747 56.265321 220.257872 56.265321 C 220.960997 56.265321 221.679747 56.265321 222.41933 56.265321 Z M 297.961002 56.265321 C 302.325586 56.265321 306.799544 56.635112 311.37767 57.374696 C 315.955795 58.114279 320.200587 59.431988 324.112045 61.322613 C 328.028712 63.197613 331.179754 65.812196 333.580796 69.166363 C 335.97663 72.52053 337.174546 76.859072 337.174546 82.176781 C 337.174546 83.510114 336.987046 85.197614 336.606838 87.234073 C 336.247463 89.249698 335.471421 91.36949 334.283921 93.58824 C 333.112046 95.80699 331.362046 97.879907 329.033921 99.80699 C 326.711004 101.718449 323.606837 103.286157 319.731837 104.515324 C 315.856837 105.723657 310.997461 106.322616 305.158919 106.322616 C 296.086002 106.322616 288.77871 105.687199 283.226626 104.405949 C 277.690167 103.109074 273.622459 101.223657 271.028709 98.754907 C 268.450584 96.265323 267.018292 93.291365 266.726625 89.827823 C 266.36725 84.728864 266.882875 81.067406 268.268292 78.848655 C 269.674542 76.629905 271.820375 75.234072 274.705792 74.655947 C 279.070376 76.786155 283.575585 78.42678 288.226626 79.577822 C 292.877668 80.713239 297.601627 81.280947 302.398502 81.280947 C 304.544336 81.280947 306.643294 81.176781 308.700586 80.958031 L 308.481836 78.197614 C 307.601628 78.27053 306.716211 78.306989 305.830794 78.306989 C 304.950586 78.306989 304.065169 78.306989 303.179752 78.306989 C 298.294335 78.306989 293.336002 77.848655 288.30996 76.92678 C 283.294334 75.98928 278.836001 74.234072 274.919334 71.655947 L 274.815167 71.655947 C 271.638084 69.510113 269.24225 66.744488 267.622458 63.353863 C 265.997458 59.947613 265.184958 56.249696 265.184958 52.26532 C 265.184958 50.947612 265.36725 49.270529 265.726625 47.23407 C 266.106833 45.197612 266.882875 43.098653 268.05475 40.931986 C 269.24225 38.754903 271.002667 36.708028 273.325584 34.796569 C 275.653709 32.864277 278.752668 31.286152 282.627668 30.062194 C 286.507876 28.838236 291.356835 28.223652 297.179752 28.223652 C 306.263086 28.223652 313.575586 28.874694 319.112045 30.171569 C 324.664129 31.468444 328.747462 33.333027 331.362046 35.770528 C 333.976629 38.202819 335.398505 41.161153 335.63288 44.64032 C 335.997463 49.723654 335.471421 53.473654 334.065171 55.890321 C 332.679754 58.286154 330.539129 59.775738 327.658921 60.348654 C 323.367254 58.223654 318.87767 56.609071 314.19017 55.510112 C 309.50267 54.390321 304.757878 53.833029 299.966211 53.833029 C 297.820377 53.833029 295.638085 53.942404 293.419335 54.155946 L 293.742252 56.374696 C 294.408919 56.301779 295.096419 56.265321 295.799544 56.265321 C 296.502669 56.265321 297.221419 56.265321 297.961002 56.265321 Z M 401.091217 42.067403 C 401.091217 45.911153 400.528717 48.723653 399.414134 50.504904 C 398.315175 52.275737 396.971425 53.385112 395.382884 53.833029 C 393.794342 54.265321 392.190175 54.484071 390.570383 54.484071 L 374.289132 54.484071 L 374.289132 57.593446 L 387.351633 57.593446 C 388.684966 57.593446 390.028716 57.853862 391.382883 58.374696 C 392.752675 58.879904 393.914133 59.853863 394.867258 61.296571 C 395.841217 62.739279 396.3308 64.786155 396.3308 67.437196 C 396.3308 70.030947 395.841217 72.05178 394.867258 73.494488 C 393.914133 74.937197 392.752675 75.921572 391.382883 76.442405 C 390.028716 76.947614 388.684966 77.197614 387.351633 77.197614 L 368.747465 77.197614 L 368.747465 80.416364 L 390.679758 80.416364 C 392.226633 80.489281 393.815175 80.859072 395.434967 81.525739 C 397.059967 82.192406 398.403717 83.390322 399.466217 85.124698 C 400.549551 86.853864 401.091217 89.416364 401.091217 92.801781 C 401.091217 96.140323 400.549551 98.655948 399.466217 100.348657 C 398.403717 102.041365 397.059967 103.208032 395.434967 103.83824 C 393.815175 104.468449 392.226633 104.853866 390.679758 104.999699 L 354.575589 104.999699 C 351.763089 104.999699 349.528714 104.447615 347.867255 103.348657 C 346.211005 102.234074 344.992255 100.90074 344.216213 99.348657 C 343.440172 97.796573 342.934963 96.265323 342.700588 94.749698 C 342.487047 93.234073 342.377672 92.036156 342.377672 91.155948 L 342.377672 43.64032 C 342.377672 42.754903 342.487047 41.556986 342.700588 40.041361 C 342.934963 38.525736 343.440172 36.994486 344.216213 35.442403 C 344.992255 33.895528 346.211005 32.567402 347.867255 31.468444 C 349.528714 30.348652 351.763089 29.791361 354.575589 29.791361 L 390.679758 29.791361 C 392.226633 29.864277 393.815175 30.234069 395.434967 30.900736 C 397.059967 31.567402 398.403717 32.749694 399.466217 34.442403 C 400.549551 36.140319 401.091217 38.681986 401.091217 42.067403 Z M 401.091217 42.067403 " stroke="#a44f30" stroke-width="13.154887" stroke-opacity="1" stroke-miterlimit="4"/><g fill="#f5f5dc" fill-opacity="1"><g transform="translate(48.474574, 202.269757)"><g><path d="M 30.328125 1 C 24.785156 0.832031 19.878906 -0.273438 15.609375 -2.328125 C 11.347656 -4.378906 8.015625 -7.578125 5.609375 -11.921875 C 3.203125 -16.265625 2 -21.875 2 -28.75 C 2 -34.5625 3.132812 -39.597656 5.40625 -43.859375 C 7.675781 -48.128906 10.925781 -51.453125 15.15625 -53.828125 C 19.394531 -56.210938 24.453125 -57.460938 30.328125 -57.578125 L 31.40625 -57.578125 C 36.78125 -57.578125 41.28125 -56.882812 44.90625 -55.5 C 48.53125 -54.113281 51.269531 -52.269531 53.125 -49.96875 C 54.976562 -47.675781 55.90625 -45.171875 55.90625 -42.453125 C 55.90625 -40.679688 55.53125 -38.835938 54.78125 -36.921875 C 54.039062 -35.015625 52.976562 -33.410156 51.59375 -32.109375 C 50.207031 -30.804688 48.519531 -30.15625 46.53125 -30.15625 C 44.8125 -30.15625 43.34375 -30.488281 42.125 -31.15625 C 40.90625 -31.820312 39.6875 -32.484375 38.46875 -33.140625 C 37.25 -33.804688 35.78125 -34.140625 34.0625 -34.140625 C 31.90625 -34.140625 30.257812 -33.503906 29.125 -32.234375 C 27.988281 -30.960938 27.421875 -29.410156 27.421875 -27.578125 C 27.421875 -25.859375 27.988281 -24.414062 29.125 -23.25 C 30.257812 -22.09375 31.90625 -21.515625 34.0625 -21.515625 C 35.78125 -21.515625 37.25 -21.847656 38.46875 -22.515625 C 39.6875 -23.179688 40.90625 -23.832031 42.125 -24.46875 C 43.34375 -25.101562 44.8125 -25.421875 46.53125 -25.421875 C 48.40625 -25.421875 50.046875 -24.796875 51.453125 -23.546875 C 52.867188 -22.304688 53.960938 -20.753906 54.734375 -18.890625 C 55.515625 -17.035156 55.90625 -15.140625 55.90625 -13.203125 C 55.90625 -9.160156 53.84375 -5.78125 49.71875 -3.0625 C 45.59375 -0.351562 39.488281 1 31.40625 1 Z M 30.328125 1 "/></g></g></g><g fill="#f5f5dc" fill-opacity="1"><g transform="translate(105.214297, 202.269757)"><g><path d="M 30.90625 -57.578125 C 35.882812 -57.578125 40.035156 -57.007812 43.359375 -55.875 C 46.679688 -54.738281 49.335938 -53.160156 51.328125 -51.140625 C 53.328125 -49.117188 54.828125 -46.765625 55.828125 -44.078125 C 56.828125 -41.390625 57.476562 -38.507812 57.78125 -35.4375 C 58.082031 -32.363281 58.234375 -29.21875 58.234375 -26 C 58.234375 -26.113281 58.21875 -25.128906 58.1875 -23.046875 C 58.164062 -20.972656 58.128906 -17.304688 58.078125 -12.046875 C 58.078125 -10.828125 57.976562 -9.46875 57.78125 -7.96875 C 57.582031 -6.476562 57.082031 -5.039062 56.28125 -3.65625 C 55.476562 -2.269531 54.203125 -1.132812 52.453125 -0.25 C 50.710938 0.632812 48.320312 1.078125 45.28125 1.078125 C 42.289062 1.078125 39.9375 0.632812 38.21875 -0.25 C 36.5 -1.132812 35.238281 -2.269531 34.4375 -3.65625 C 33.632812 -5.039062 33.132812 -6.476562 32.9375 -7.96875 C 32.75 -9.46875 32.65625 -10.828125 32.65625 -12.046875 L 32.65625 -13.875 C 34.09375 -14.375 35.28125 -15.285156 36.21875 -16.609375 C 37.164062 -17.941406 37.691406 -19.519531 37.796875 -21.34375 L 35.71875 -21.34375 C 35.613281 -19.300781 34.992188 -17.835938 33.859375 -16.953125 C 32.722656 -16.066406 31.460938 -15.625 30.078125 -15.625 C 28.691406 -15.625 27.414062 -16.066406 26.25 -16.953125 C 25.09375 -17.835938 24.457031 -19.300781 24.34375 -21.34375 L 22.265625 -21.34375 C 22.378906 -19.519531 22.90625 -17.941406 23.84375 -16.609375 C 24.78125 -15.285156 25.972656 -14.375 27.421875 -13.875 L 27.421875 -12.046875 C 27.421875 -10.828125 27.320312 -9.46875 27.125 -7.96875 C 26.925781 -6.476562 26.425781 -5.039062 25.625 -3.65625 C 24.820312 -2.269531 23.5625 -1.132812 21.84375 -0.25 C 20.132812 0.632812 17.78125 1.078125 14.78125 1.078125 C 11.738281 1.078125 9.34375 0.632812 7.59375 -0.25 C 5.851562 -1.132812 4.582031 -2.269531 3.78125 -3.65625 C 2.976562 -5.039062 2.476562 -6.476562 2.28125 -7.96875 C 2.09375 -9.46875 2 -10.828125 2 -12.046875 C 1.9375 -17.304688 1.890625 -20.972656 1.859375 -23.046875 C 1.835938 -25.128906 1.828125 -26.113281 1.828125 -26 C 1.828125 -29.21875 1.976562 -32.363281 2.28125 -35.4375 C 2.582031 -38.507812 3.234375 -41.390625 4.234375 -44.078125 C 5.234375 -46.765625 6.726562 -49.117188 8.71875 -51.140625 C 10.71875 -53.160156 13.378906 -54.738281 16.703125 -55.875 C 20.023438 -57.007812 24.175781 -57.578125 29.15625 -57.578125 Z M 30.328125 -29 C 31.429688 -29.101562 32.09375 -29.445312 32.3125 -30.03125 C 32.539062 -30.613281 32.65625 -31.125 32.65625 -31.5625 L 32.65625 -37.46875 C 32.65625 -37.914062 32.53125 -38.457031 32.28125 -39.09375 C 32.03125 -39.726562 31.296875 -40.046875 30.078125 -40.046875 C 29.023438 -39.984375 28.375 -39.648438 28.125 -39.046875 C 27.875 -38.441406 27.75 -37.914062 27.75 -37.46875 L 27.75 -31.5625 C 27.75 -31.125 27.875 -30.585938 28.125 -29.953125 C 28.375 -29.316406 29.109375 -29 30.328125 -29 Z M 30.328125 -29 "/></g></g></g><g fill="#f5f5dc" fill-opacity="1"><g transform="translate(165.276995, 202.269757)"><g><path d="M 26.09375 -36.546875 C 29.351562 -36.546875 32.703125 -36.269531 36.140625 -35.71875 C 39.578125 -35.164062 42.757812 -34.179688 45.6875 -32.765625 C 48.625 -31.359375 50.992188 -29.394531 52.796875 -26.875 C 54.597656 -24.351562 55.5 -21.097656 55.5 -17.109375 C 55.5 -16.117188 55.359375 -14.859375 55.078125 -13.328125 C 54.804688 -11.804688 54.222656 -10.210938 53.328125 -8.546875 C 52.441406 -6.890625 51.125 -5.34375 49.375 -3.90625 C 47.632812 -2.46875 45.3125 -1.289062 42.40625 -0.375 C 39.5 0.539062 35.859375 1 31.484375 1 C 24.671875 1 19.1875 0.515625 15.03125 -0.453125 C 10.882812 -1.421875 7.835938 -2.832031 5.890625 -4.6875 C 3.953125 -6.550781 2.875 -8.78125 2.65625 -11.375 C 2.382812 -15.195312 2.773438 -17.9375 3.828125 -19.59375 C 4.878906 -21.257812 6.484375 -22.316406 8.640625 -22.765625 C 11.910156 -21.160156 15.289062 -19.925781 18.78125 -19.0625 C 22.269531 -18.207031 25.8125 -17.78125 29.40625 -17.78125 C 31.007812 -17.78125 32.585938 -17.863281 34.140625 -18.03125 L 33.984375 -20.109375 C 33.316406 -20.046875 32.648438 -20.015625 31.984375 -20.015625 C 31.316406 -20.015625 30.648438 -20.015625 29.984375 -20.015625 C 26.335938 -20.015625 22.628906 -20.359375 18.859375 -21.046875 C 15.085938 -21.742188 11.738281 -23.0625 8.8125 -25 L 8.71875 -25 C 6.34375 -26.613281 4.546875 -28.691406 3.328125 -31.234375 C 2.109375 -33.785156 1.5 -36.554688 1.5 -39.546875 C 1.5 -40.546875 1.632812 -41.804688 1.90625 -43.328125 C 2.1875 -44.847656 2.769531 -46.425781 3.65625 -48.0625 C 4.539062 -49.695312 5.851562 -51.234375 7.59375 -52.671875 C 9.34375 -54.109375 11.671875 -55.285156 14.578125 -56.203125 C 17.484375 -57.117188 21.125 -57.578125 25.5 -57.578125 C 32.3125 -57.578125 37.796875 -57.09375 41.953125 -56.125 C 46.109375 -55.15625 49.164062 -53.753906 51.125 -51.921875 C 53.09375 -50.097656 54.160156 -47.882812 54.328125 -45.28125 C 54.609375 -41.457031 54.222656 -38.644531 53.171875 -36.84375 C 52.117188 -35.039062 50.507812 -33.921875 48.34375 -33.484375 C 45.132812 -35.085938 41.769531 -36.300781 38.25 -37.125 C 34.738281 -37.957031 31.179688 -38.375 27.578125 -38.375 C 25.972656 -38.375 24.34375 -38.296875 22.6875 -38.140625 L 22.921875 -36.46875 C 23.421875 -36.519531 23.929688 -36.546875 24.453125 -36.546875 C 24.984375 -36.546875 25.53125 -36.546875 26.09375 -36.546875 Z M 26.09375 -36.546875 "/></g></g></g><g fill="#f5f5dc" fill-opacity="1"><g transform="translate(221.933646, 202.269757)"><g><path d="M 26.09375 -36.546875 C 29.351562 -36.546875 32.703125 -36.269531 36.140625 -35.71875 C 39.578125 -35.164062 42.757812 -34.179688 45.6875 -32.765625 C 48.625 -31.359375 50.992188 -29.394531 52.796875 -26.875 C 54.597656 -24.351562 55.5 -21.097656 55.5 -17.109375 C 55.5 -16.117188 55.359375 -14.859375 55.078125 -13.328125 C 54.804688 -11.804688 54.222656 -10.210938 53.328125 -8.546875 C 52.441406 -6.890625 51.125 -5.34375 49.375 -3.90625 C 47.632812 -2.46875 45.3125 -1.289062 42.40625 -0.375 C 39.5 0.539062 35.859375 1 31.484375 1 C 24.671875 1 19.1875 0.515625 15.03125 -0.453125 C 10.882812 -1.421875 7.835938 -2.832031 5.890625 -4.6875 C 3.953125 -6.550781 2.875 -8.78125 2.65625 -11.375 C 2.382812 -15.195312 2.773438 -17.9375 3.828125 -19.59375 C 4.878906 -21.257812 6.484375 -22.316406 8.640625 -22.765625 C 11.910156 -21.160156 15.289062 -19.925781 18.78125 -19.0625 C 22.269531 -18.207031 25.8125 -17.78125 29.40625 -17.78125 C 31.007812 -17.78125 32.585938 -17.863281 34.140625 -18.03125 L 33.984375 -20.109375 C 33.316406 -20.046875 32.648438 -20.015625 31.984375 -20.015625 C 31.316406 -20.015625 30.648438 -20.015625 29.984375 -20.015625 C 26.335938 -20.015625 22.628906 -20.359375 18.859375 -21.046875 C 15.085938 -21.742188 11.738281 -23.0625 8.8125 -25 L 8.71875 -25 C 6.34375 -26.613281 4.546875 -28.691406 3.328125 -31.234375 C 2.109375 -33.785156 1.5 -36.554688 1.5 -39.546875 C 1.5 -40.546875 1.632812 -41.804688 1.90625 -43.328125 C 2.1875 -44.847656 2.769531 -46.425781 3.65625 -48.0625 C 4.539062 -49.695312 5.851562 -51.234375 7.59375 -52.671875 C 9.34375 -54.109375 11.671875 -55.285156 14.578125 -56.203125 C 17.484375 -57.117188 21.125 -57.578125 25.5 -57.578125 C 32.3125 -57.578125 37.796875 -57.09375 41.953125 -56.125 C 46.109375 -55.15625 49.164062 -53.753906 51.125 -51.921875 C 53.09375 -50.097656 54.160156 -47.882812 54.328125 -45.28125 C 54.609375 -41.457031 54.222656 -38.644531 53.171875 -36.84375 C 52.117188 -35.039062 50.507812 -33.921875 48.34375 -33.484375 C 45.132812 -35.085938 41.769531 -36.300781 38.25 -37.125 C 34.738281 -37.957031 31.179688 -38.375 27.578125 -38.375 C 25.972656 -38.375 24.34375 -38.296875 22.6875 -38.140625 L 22.921875 -36.46875 C 23.421875 -36.519531 23.929688 -36.546875 24.453125 -36.546875 C 24.984375 -36.546875 25.53125 -36.546875 26.09375 -36.546875 Z M 26.09375 -36.546875 "/></g></g></g><g fill="#f5f5dc" fill-opacity="1"><g transform="translate(278.590297, 202.269757)"><g><path d="M 46.765625 -47.1875 C 46.765625 -44.3125 46.347656 -42.207031 45.515625 -40.875 C 44.691406 -39.539062 43.679688 -38.707031 42.484375 -38.375 C 41.296875 -38.050781 40.09375 -37.890625 38.875 -37.890625 L 26.671875 -37.890625 L 26.671875 -35.5625 L 36.46875 -35.5625 C 37.46875 -35.5625 38.476562 -35.363281 39.5 -34.96875 C 40.53125 -34.582031 41.40625 -33.847656 42.125 -32.765625 C 42.84375 -31.691406 43.203125 -30.15625 43.203125 -28.15625 C 43.203125 -26.21875 42.84375 -24.707031 42.125 -23.625 C 41.40625 -22.550781 40.53125 -21.820312 39.5 -21.4375 C 38.476562 -21.050781 37.46875 -20.859375 36.46875 -20.859375 L 22.515625 -20.859375 L 22.515625 -18.4375 L 38.96875 -18.4375 C 40.125 -18.382812 41.3125 -18.109375 42.53125 -17.609375 C 43.75 -17.109375 44.757812 -16.207031 45.5625 -14.90625 C 46.363281 -13.601562 46.765625 -11.679688 46.765625 -9.140625 C 46.765625 -6.648438 46.363281 -4.765625 45.5625 -3.484375 C 44.757812 -2.210938 43.75 -1.34375 42.53125 -0.875 C 41.3125 -0.40625 40.125 -0.113281 38.96875 0 L 11.875 0 C 9.769531 0 8.09375 -0.414062 6.84375 -1.25 C 5.601562 -2.082031 4.691406 -3.078125 4.109375 -4.234375 C 3.523438 -5.398438 3.148438 -6.550781 2.984375 -7.6875 C 2.816406 -8.820312 2.734375 -9.722656 2.734375 -10.390625 L 2.734375 -46.03125 C 2.734375 -46.6875 2.816406 -47.582031 2.984375 -48.71875 C 3.148438 -49.851562 3.523438 -51.003906 4.109375 -52.171875 C 4.691406 -53.335938 5.601562 -54.332031 6.84375 -55.15625 C 8.09375 -55.988281 9.769531 -56.40625 11.875 -56.40625 L 38.96875 -56.40625 C 40.125 -56.351562 41.3125 -56.078125 42.53125 -55.578125 C 43.75 -55.078125 44.757812 -54.191406 45.5625 -52.921875 C 46.363281 -51.648438 46.765625 -49.738281 46.765625 -47.1875 Z M 46.765625 -47.1875 "/></g></g></g><path stroke-linecap="butt" transform="matrix(0.75, 0, 0, 0.75, 19.694527, 188.796888)" fill="none" stroke-linejoin="miter" d="M 43.225008 106.322907 C 35.834383 106.109365 29.297924 104.640615 23.62084 101.916657 C 17.943757 99.177073 13.490631 94.911448 10.261465 89.124989 C 7.053131 83.317697 5.448964 75.83853 5.448964 66.677071 C 5.448964 58.92707 6.959381 52.213528 9.990631 46.531236 C 13.021881 40.833319 17.355215 36.401027 22.99584 33.229152 C 28.657299 30.052069 35.402091 28.385402 43.225008 28.223943 L 44.662509 28.223943 C 51.834384 28.223943 57.839593 29.151027 62.672926 31.010402 C 67.501052 32.848944 71.152094 35.302069 73.626052 38.364569 C 76.110427 41.432278 77.355219 44.776028 77.355219 48.39582 C 77.355219 50.760403 76.850011 53.218737 75.839594 55.781237 C 74.850011 58.322904 73.422927 60.458321 71.56876 62.192696 C 69.730219 63.921862 67.485427 64.786446 64.834385 64.786446 C 62.542718 64.786446 60.589593 64.343737 58.964593 63.463529 C 57.344801 62.578112 55.709384 61.692696 54.068759 60.812487 C 52.448967 59.92707 50.490634 59.484362 48.204175 59.484362 C 45.334384 59.484362 43.146883 60.33332 41.631258 62.026029 C 40.115633 63.723946 39.360425 65.786446 39.360425 68.218738 C 39.360425 70.510404 40.115633 72.43228 41.631258 73.979155 C 43.146883 75.531238 45.334384 76.30728 48.204175 76.30728 C 50.490634 76.30728 52.448967 75.864572 54.068759 74.984363 C 55.709384 74.098946 57.344801 73.234363 58.964593 72.385405 C 60.589593 71.536446 62.542718 71.114571 64.834385 71.114571 C 67.339593 71.114571 69.532302 71.942696 71.407302 73.604155 C 73.297927 75.260405 74.761469 77.328113 75.787511 79.796863 C 76.834386 82.265614 77.355219 84.796864 77.355219 87.395822 C 77.355219 92.786448 74.594802 97.291656 69.079177 100.916656 C 63.579176 104.520823 55.443759 106.322907 44.662509 106.322907 Z M 136.05314 106.322907 C 133.620848 106.322907 131.511473 105.755198 129.725014 104.619782 C 127.959389 103.46874 126.480222 102.078115 125.287514 100.458323 C 124.115639 98.833323 123.126055 97.354156 122.313555 96.020823 L 113.230221 77.848947 L 110.683346 79.203113 L 115.339597 88.286447 L 115.339597 88.828114 C 115.339597 90.453114 115.20418 92.260406 114.933346 94.265614 C 114.678138 96.244781 114.021888 98.166656 112.959388 100.026031 C 111.89168 101.864573 110.188555 103.37499 107.844804 104.567698 C 105.521888 105.739573 102.329179 106.322907 98.271887 106.322907 C 94.287512 106.322907 91.152095 105.739573 88.860428 104.567698 C 86.57397 103.37499 84.88647 101.864573 83.803136 100.026031 C 82.740636 98.166656 82.084386 96.244781 81.829178 94.265614 C 81.579178 92.260406 81.454178 90.453114 81.454178 88.828114 L 81.454178 58.593737 C 81.454178 52.244778 82.422928 47.08332 84.370844 43.098944 C 86.339595 39.093736 89.084386 36.031236 92.620845 33.901027 C 96.172929 31.755194 100.292721 30.281235 104.980221 29.468735 C 109.667721 28.64061 114.740638 28.223943 120.20418 28.223943 C 131.579181 28.223943 140.407306 30.651027 146.67814 35.499986 C 152.954182 40.328111 156.089599 48.026028 156.089599 58.593737 C 156.089599 61.984362 155.719807 65.031237 154.980224 67.734363 C 154.245849 70.421863 153.214599 72.765613 151.902099 74.765613 L 148.11564 69.656238 L 146.355224 71.005196 L 152.225016 79.203113 C 153.037516 80.515613 153.808349 82.104155 154.547932 83.958322 C 155.287516 85.796864 155.657307 87.755197 155.657307 89.828114 C 155.657307 92.046864 154.975016 94.317698 153.605224 96.645823 C 152.235432 98.96874 149.70939 101.161448 146.032307 103.213532 C 144.100015 104.333323 142.308348 105.12499 140.652098 105.59374 C 138.99064 106.083323 137.45939 106.322907 136.05314 106.322907 Z M 122.20418 58.807279 L 122.20418 55.593737 C 122.20418 54.994778 122.032305 54.276028 121.693764 53.42707 C 121.365639 52.58332 120.36043 52.156237 118.662513 52.156237 C 117.11043 52.229153 116.167722 52.671862 115.823972 53.484362 C 115.501055 54.291653 115.339597 54.994778 115.339597 55.593737 L 115.339597 58.807279 C 115.339597 59.406237 115.51668 60.124987 115.876055 60.973946 C 116.256263 61.822904 117.292722 62.244779 118.98543 62.244779 C 120.464597 62.098946 121.365639 61.640612 121.693764 60.864571 C 122.032305 60.088529 122.20418 59.406237 122.20418 58.807279 Z M 234.303146 68.546863 C 234.303146 75.416655 233.391688 81.140614 231.573979 85.718739 C 229.771896 90.296864 227.443771 93.973948 224.594812 96.74999 C 221.766687 99.510406 218.698978 101.572907 215.402103 102.942698 C 212.120853 104.31249 208.980228 105.21874 205.990644 105.651032 C 202.995852 106.098948 200.506269 106.322907 198.527102 106.322907 L 196.740644 106.322907 C 194.756268 106.322907 192.271893 106.098948 189.277101 105.651032 C 186.28231 105.21874 183.136476 104.31249 179.839601 102.942698 C 176.558351 101.572907 173.490642 99.510406 170.641683 96.74999 C 167.813558 93.973948 165.485433 90.296864 163.667725 85.718739 C 161.865641 81.140614 160.9646 75.416655 160.9646 68.546863 C 160.9646 60.718737 162.386475 53.786445 165.235433 47.749986 C 168.084392 41.692694 172.240642 36.921861 177.704184 33.442694 C 183.162518 29.963527 189.84481 28.223943 197.740644 28.223943 L 197.850019 28.223943 C 205.672936 28.312485 212.297936 30.098944 217.72502 33.57811 C 223.172937 37.041652 227.292729 41.796861 230.084396 47.859361 C 232.896896 53.89582 234.303146 60.791654 234.303146 68.546863 Z M 200.740644 73.197905 L 200.740644 62.458321 C 200.740644 61.864571 200.573977 61.145821 200.230227 60.296862 C 199.90731 59.447904 198.933352 59.026029 197.308352 59.026029 C 195.902102 59.026029 195.027102 59.447904 194.683352 60.296862 C 194.360435 61.145821 194.198977 61.864571 194.198977 62.458321 L 194.198977 73.197905 C 194.198977 73.791655 194.360435 74.510405 194.683352 75.359363 C 195.027102 76.208322 196.011477 76.630197 197.631269 76.630197 C 199.110435 76.630197 199.995852 76.208322 200.28231 75.359363 C 200.589602 74.510405 200.740644 73.791655 200.740644 73.197905 Z M 276.730232 75.656238 C 277.01669 75.567696 277.303149 75.395821 277.594815 75.145821 C 277.902107 74.890613 278.053149 74.578113 278.053149 74.197905 L 278.053149 45.749986 C 278.053149 44.124986 278.198982 42.312486 278.485441 40.312486 C 278.792732 38.312486 279.495857 36.390611 280.594816 34.552069 C 281.714607 32.713527 283.469816 31.197902 285.870858 30.010402 C 288.266691 28.817693 291.568775 28.223943 295.766692 28.223943 C 300.058359 28.223943 303.422942 28.817693 305.855234 30.010402 C 308.287526 31.197902 310.053151 32.713527 311.157318 34.552069 C 312.271901 36.390611 312.975026 38.312486 313.266693 40.312486 C 313.568776 42.312486 313.725026 44.124986 313.725026 45.749986 L 313.834401 64.567696 C 313.834401 68.859363 313.626068 73.036446 313.209401 77.093738 C 312.813568 81.145822 311.948984 84.953114 310.615651 88.505197 C 309.282318 92.036448 307.308359 95.156239 304.693776 97.859365 C 302.079192 100.546865 298.568775 102.645823 294.172942 104.161448 C 289.7719 105.677073 284.256274 106.432282 277.620857 106.432282 L 275.29794 106.432282 C 268.64169 106.432282 263.115648 105.677073 258.719814 104.161448 C 254.318772 102.645823 250.813564 100.546865 248.19898 97.859365 C 245.584397 95.156239 243.610438 92.036448 242.277105 88.505197 C 240.943771 84.953114 240.068771 81.145822 239.652105 77.093738 C 239.256271 73.036446 239.058355 68.859363 239.058355 64.567696 C 239.058355 64.640612 239.07398 64.291654 239.110438 63.515612 C 239.146896 62.739571 239.16773 60.989571 239.16773 58.27082 C 239.16773 55.526029 239.16773 51.354153 239.16773 45.749986 C 239.16773 44.124986 239.308355 42.312486 239.600021 40.312486 C 239.902105 38.312486 240.60523 36.390611 241.709396 34.552069 C 242.82398 32.713527 244.600022 31.197902 247.037522 30.010402 C 249.469814 28.817693 252.829189 28.223943 257.120856 28.223943 C 261.323981 28.223943 264.620856 28.817693 267.021898 30.010402 C 269.417732 31.197902 271.167732 32.713527 272.26669 34.552069 C 273.386482 36.390611 274.089607 38.312486 274.376065 40.312486 C 274.683357 42.312486 274.834399 44.124986 274.834399 45.749986 L 274.834399 74.197905 C 274.834399 74.645821 275.01669 75.010405 275.376065 75.281238 C 275.756274 75.531238 276.089607 75.656238 276.376065 75.656238 Z M 288.032316 26.35936 C 286.912524 26.35936 285.933358 26.124985 285.084399 25.656235 C 284.235441 25.166652 283.740649 24.89061 283.600024 24.817693 L 276.620857 20.598943 L 274.053149 18.703109 C 273.761482 18.562484 273.54794 18.489568 273.402107 18.489568 C 273.021899 18.489568 272.761482 18.697901 272.615649 19.109359 C 272.475023 19.505193 272.584399 19.848943 272.943774 20.135401 L 274.292732 21.14061 L 268.292732 24.817693 C 268.146898 24.89061 267.652107 25.166652 266.803148 25.656235 C 265.95419 26.124985 264.980231 26.35936 263.881273 26.35936 C 263.214606 26.35936 262.532315 26.197902 261.829189 25.869777 C 261.126064 25.526027 260.511481 24.989568 259.990648 24.249985 C 259.105231 23.151026 258.662523 21.776026 258.662523 20.135401 C 258.662523 19.182276 258.881273 18.260401 259.313564 17.380193 C 259.761481 16.494776 260.511481 15.828109 261.558356 15.380193 L 266.318773 12.401026 C 269.271898 10.708317 271.355232 9.5104 272.563565 8.807275 C 273.787524 8.10415 274.584399 7.677067 274.943774 7.536442 C 275.323982 7.374984 275.657315 7.29165 275.943774 7.29165 C 276.23544 7.29165 276.558357 7.390609 276.917732 7.588525 C 277.29794 7.770817 278.115649 8.213525 279.381274 8.91665 C 280.641691 9.619775 282.667732 10.781234 285.464608 12.401026 L 290.360441 15.380193 C 291.386483 15.828109 292.11565 16.494776 292.547941 17.380193 C 293.001067 18.260401 293.225025 19.182276 293.225025 20.135401 C 293.225025 21.776026 292.782316 23.151026 291.902108 24.249985 C 291.376066 24.989568 290.766691 25.526027 290.063566 25.869777 C 289.360441 26.197902 288.683358 26.35936 288.032316 26.35936 Z M 316.475026 41.963528 C 316.475026 38.645819 317.02711 36.140611 318.126068 34.442694 C 319.24586 32.749985 320.594818 31.567694 322.18336 30.901027 C 323.771902 30.23436 325.33961 29.864568 326.891694 29.791652 L 369.214613 29.791652 C 370.761488 29.864568 372.35003 30.23436 373.969822 30.901027 C 375.594822 31.567694 376.938572 32.749985 378.001072 34.442694 C 379.084405 36.140611 379.626072 38.645819 379.626072 41.963528 C 379.626072 46.98957 378.678155 50.317695 376.782322 51.942695 C 374.907322 53.562487 372.386488 54.374987 369.214613 54.374987 L 365.667738 54.374987 L 365.667738 88.828114 C 365.667738 90.453114 365.532321 92.260406 365.261488 94.265614 C 365.011488 96.244781 364.344821 98.166656 363.261488 100.026031 C 362.198988 101.864573 360.506279 103.37499 358.178154 104.567698 C 355.855237 105.739573 352.662529 106.322907 348.605237 106.322907 C 344.620862 106.322907 341.485445 105.739573 339.193778 104.567698 C 336.902111 103.37499 335.219819 101.864573 334.136486 100.026031 C 333.073986 98.166656 332.417736 96.244781 332.162527 94.265614 C 331.912527 92.260406 331.782319 90.453114 331.782319 88.828114 L 331.782319 57.593737 L 339.62607 57.593737 L 339.62607 54.374987 L 326.891694 54.374987 C 325.33961 54.229153 323.771902 53.843737 322.18336 53.213528 C 320.594818 52.58332 319.24586 51.380195 318.126068 49.61457 C 317.02711 47.848945 316.475026 45.296861 316.475026 41.963528 Z M 443.089618 42.067694 C 443.089618 45.911445 442.532326 48.723945 441.412535 50.505195 C 440.313576 52.276028 438.969826 53.385403 437.386493 53.83332 C 435.797951 54.265612 434.193784 54.484362 432.573992 54.484362 L 416.292741 54.484362 L 416.292741 57.593737 L 429.355242 57.593737 C 430.688576 57.593737 432.032326 57.854154 433.381284 58.374987 C 434.751076 58.880195 435.917743 59.854154 436.870868 61.296862 C 437.844826 62.739571 438.334409 64.786446 438.334409 67.437488 C 438.334409 70.031238 437.844826 72.052071 436.870868 73.49478 C 435.917743 74.937488 434.751076 75.921863 433.381284 76.442697 C 432.032326 76.947905 430.688576 77.197905 429.355242 77.197905 L 410.745866 77.197905 L 410.745866 80.416655 L 432.678159 80.416655 C 434.230242 80.489572 435.818784 80.859364 437.438576 81.52603 C 439.063576 82.192697 440.407326 83.390614 441.469826 85.124989 C 442.55316 86.854156 443.089618 89.411447 443.089618 92.802073 C 443.089618 96.140615 442.55316 98.65624 441.469826 100.348948 C 440.407326 102.041657 439.063576 103.208323 437.438576 103.838532 C 435.818784 104.46874 434.230242 104.854157 432.678159 104.99999 L 396.579198 104.99999 C 393.766698 104.99999 391.527115 104.447907 389.870865 103.348948 C 388.209406 102.234365 386.995864 100.895823 386.219823 99.348948 C 385.443781 97.796865 384.938573 96.265615 384.704198 94.749989 C 384.490656 93.234364 384.381281 92.036448 384.381281 91.156239 L 384.381281 43.640611 C 384.381281 42.755194 384.490656 41.557278 384.704198 40.041652 C 384.938573 38.526027 385.443781 36.994777 386.219823 35.442694 C 386.995864 33.895819 388.209406 32.567694 389.870865 31.468735 C 391.527115 30.348944 393.766698 29.791652 396.579198 29.791652 L 432.678159 29.791652 C 434.230242 29.864568 435.818784 30.23436 437.438576 30.901027 C 439.063576 31.567694 440.407326 32.749985 441.469826 34.442694 C 442.55316 36.140611 443.089618 38.682277 443.089618 42.067694 Z M 443.089618 42.067694 " stroke="#a44f30" stroke-width="13.154887" stroke-opacity="1" stroke-miterlimit="4"/><g fill="#f5f5dc" fill-opacity="1"><g transform="translate(21.792183, 267.546882)"><g><path d="M 30.328125 1 C 24.785156 0.832031 19.878906 -0.273438 15.609375 -2.328125 C 11.347656 -4.378906 8.015625 -7.578125 5.609375 -11.921875 C 3.203125 -16.265625 2 -21.875 2 -28.75 C 2 -34.5625 3.132812 -39.597656 5.40625 -43.859375 C 7.675781 -48.128906 10.925781 -51.453125 15.15625 -53.828125 C 19.394531 -56.210938 24.453125 -57.460938 30.328125 -57.578125 L 31.40625 -57.578125 C 36.78125 -57.578125 41.28125 -56.882812 44.90625 -55.5 C 48.53125 -54.113281 51.269531 -52.269531 53.125 -49.96875 C 54.976562 -47.675781 55.90625 -45.171875 55.90625 -42.453125 C 55.90625 -40.679688 55.53125 -38.835938 54.78125 -36.921875 C 54.039062 -35.015625 52.976562 -33.410156 51.59375 -32.109375 C 50.207031 -30.804688 48.519531 -30.15625 46.53125 -30.15625 C 44.8125 -30.15625 43.34375 -30.488281 42.125 -31.15625 C 40.90625 -31.820312 39.6875 -32.484375 38.46875 -33.140625 C 37.25 -33.804688 35.78125 -34.140625 34.0625 -34.140625 C 31.90625 -34.140625 30.257812 -33.503906 29.125 -32.234375 C 27.988281 -30.960938 27.421875 -29.410156 27.421875 -27.578125 C 27.421875 -25.859375 27.988281 -24.414062 29.125 -23.25 C 30.257812 -22.09375 31.90625 -21.515625 34.0625 -21.515625 C 35.78125 -21.515625 37.25 -21.847656 38.46875 -22.515625 C 39.6875 -23.179688 40.90625 -23.832031 42.125 -24.46875 C 43.34375 -25.101562 44.8125 -25.421875 46.53125 -25.421875 C 48.40625 -25.421875 50.046875 -24.796875 51.453125 -23.546875 C 52.867188 -22.304688 53.960938 -20.753906 54.734375 -18.890625 C 55.515625 -17.035156 55.90625 -15.140625 55.90625 -13.203125 C 55.90625 -9.160156 53.84375 -5.78125 49.71875 -3.0625 C 45.59375 -0.351562 39.488281 1 31.40625 1 Z M 30.328125 1 "/></g></g></g><g fill="#f5f5dc" fill-opacity="1"><g transform="translate(78.531906, 267.546882)"><g><path d="M 43.203125 1 C 41.367188 1 39.785156 0.570312 38.453125 -0.28125 C 37.128906 -1.144531 36.023438 -2.1875 35.140625 -3.40625 C 34.253906 -4.625 33.507812 -5.734375 32.90625 -6.734375 L 26.09375 -20.359375 L 24.171875 -19.359375 L 27.671875 -12.546875 L 27.671875 -12.125 C 27.671875 -10.90625 27.570312 -9.546875 27.375 -8.046875 C 27.175781 -6.554688 26.675781 -5.117188 25.875 -3.734375 C 25.070312 -2.347656 23.796875 -1.210938 22.046875 -0.328125 C 20.304688 0.554688 17.914062 1 14.875 1 C 11.882812 1 9.53125 0.554688 7.8125 -0.328125 C 6.09375 -1.210938 4.832031 -2.347656 4.03125 -3.734375 C 3.226562 -5.117188 2.726562 -6.554688 2.53125 -8.046875 C 2.34375 -9.546875 2.25 -10.90625 2.25 -12.125 L 2.25 -34.8125 C 2.25 -39.570312 2.976562 -43.445312 4.4375 -46.4375 C 5.90625 -49.425781 7.96875 -51.722656 10.625 -53.328125 C 13.289062 -54.941406 16.378906 -56.050781 19.890625 -56.65625 C 23.410156 -57.269531 27.222656 -57.578125 31.328125 -57.578125 C 39.847656 -57.578125 46.460938 -55.757812 51.171875 -52.125 C 55.878906 -48.5 58.234375 -42.726562 58.234375 -34.8125 C 58.234375 -32.257812 57.957031 -29.972656 57.40625 -27.953125 C 56.851562 -25.929688 56.078125 -24.175781 55.078125 -22.6875 L 52.25 -26.5 L 50.921875 -25.5 L 55.328125 -19.359375 C 55.941406 -18.359375 56.523438 -17.164062 57.078125 -15.78125 C 57.628906 -14.394531 57.90625 -12.925781 57.90625 -11.375 C 57.90625 -9.71875 57.390625 -8.015625 56.359375 -6.265625 C 55.335938 -4.523438 53.441406 -2.878906 50.671875 -1.328125 C 49.234375 -0.492188 47.890625 0.0976562 46.640625 0.453125 C 45.398438 0.816406 44.253906 1 43.203125 1 Z M 32.8125 -34.640625 L 32.8125 -37.046875 C 32.8125 -37.492188 32.6875 -38.035156 32.4375 -38.671875 C 32.1875 -39.304688 31.425781 -39.625 30.15625 -39.625 C 28.988281 -39.570312 28.28125 -39.238281 28.03125 -38.625 C 27.789062 -38.019531 27.671875 -37.492188 27.671875 -37.046875 L 27.671875 -34.640625 C 27.671875 -34.203125 27.804688 -33.660156 28.078125 -33.015625 C 28.359375 -32.378906 29.132812 -32.0625 30.40625 -32.0625 C 31.507812 -32.175781 32.1875 -32.523438 32.4375 -33.109375 C 32.6875 -33.691406 32.8125 -34.203125 32.8125 -34.640625 Z M 32.8125 -34.640625 "/></g></g></g><g fill="#f5f5dc" fill-opacity="1"><g transform="translate(138.428448, 267.546882)"><g><path d="M 56.984375 -27.328125 C 56.984375 -22.179688 56.304688 -17.890625 54.953125 -14.453125 C 53.597656 -11.023438 51.851562 -8.269531 49.71875 -6.1875 C 47.59375 -4.113281 45.296875 -2.5625 42.828125 -1.53125 C 40.359375 -0.507812 38.003906 0.164062 35.765625 0.5 C 33.523438 0.832031 31.65625 1 30.15625 1 L 28.828125 1 C 27.328125 1 25.457031 0.832031 23.21875 0.5 C 20.976562 0.164062 18.625 -0.507812 16.15625 -1.53125 C 13.695312 -2.5625 11.398438 -4.113281 9.265625 -6.1875 C 7.128906 -8.269531 5.382812 -11.023438 4.03125 -14.453125 C 2.675781 -17.890625 2 -22.179688 2 -27.328125 C 2 -33.203125 3.0625 -38.410156 5.1875 -42.953125 C 7.320312 -47.492188 10.4375 -51.066406 14.53125 -53.671875 C 18.632812 -56.273438 23.648438 -57.578125 29.578125 -57.578125 L 29.65625 -57.578125 C 35.53125 -57.515625 40.5 -56.179688 44.5625 -53.578125 C 48.632812 -50.984375 51.722656 -47.414062 53.828125 -42.875 C 55.929688 -38.332031 56.984375 -33.148438 56.984375 -27.328125 Z M 31.8125 -23.84375 L 31.8125 -31.90625 C 31.8125 -32.34375 31.6875 -32.878906 31.4375 -33.515625 C 31.195312 -34.160156 30.46875 -34.484375 29.25 -34.484375 C 28.195312 -34.484375 27.546875 -34.160156 27.296875 -33.515625 C 27.046875 -32.878906 26.921875 -32.34375 26.921875 -31.90625 L 26.921875 -23.84375 C 26.921875 -23.394531 27.046875 -22.851562 27.296875 -22.21875 C 27.546875 -21.582031 28.28125 -21.265625 29.5 -21.265625 C 30.601562 -21.265625 31.265625 -21.582031 31.484375 -22.21875 C 31.703125 -22.851562 31.8125 -23.394531 31.8125 -23.84375 Z M 31.8125 -23.84375 "/></g></g></g><g fill="#f5f5dc" fill-opacity="1"><g transform="translate(197.161949, 267.546882)"><g><path d="M 30.078125 -22.015625 C 30.296875 -22.066406 30.515625 -22.191406 30.734375 -22.390625 C 30.960938 -22.585938 31.078125 -22.820312 31.078125 -23.09375 L 31.078125 -44.453125 C 31.078125 -45.671875 31.1875 -47.023438 31.40625 -48.515625 C 31.625 -50.015625 32.148438 -51.457031 32.984375 -52.84375 C 33.816406 -54.226562 35.128906 -55.363281 36.921875 -56.25 C 38.722656 -57.132812 41.203125 -57.578125 44.359375 -57.578125 C 47.578125 -57.578125 50.097656 -57.132812 51.921875 -56.25 C 53.753906 -55.363281 55.082031 -54.226562 55.90625 -52.84375 C 56.738281 -51.457031 57.265625 -50.015625 57.484375 -48.515625 C 57.710938 -47.023438 57.828125 -45.671875 57.828125 -44.453125 L 57.90625 -30.328125 C 57.90625 -27.109375 57.75 -23.972656 57.4375 -20.921875 C 57.132812 -17.878906 56.484375 -15.03125 55.484375 -12.375 C 54.492188 -9.71875 53.015625 -7.378906 51.046875 -5.359375 C 49.085938 -3.335938 46.457031 -1.757812 43.15625 -0.625 C 39.863281 0.507812 35.722656 1.078125 30.734375 1.078125 L 29 1.078125 C 24.007812 1.078125 19.863281 0.507812 16.5625 -0.625 C 13.269531 -1.757812 10.640625 -3.335938 8.671875 -5.359375 C 6.710938 -7.378906 5.234375 -9.71875 4.234375 -12.375 C 3.234375 -15.03125 2.582031 -17.878906 2.28125 -20.921875 C 1.976562 -23.972656 1.828125 -27.109375 1.828125 -30.328125 C 1.828125 -30.265625 1.835938 -30.523438 1.859375 -31.109375 C 1.890625 -31.691406 1.90625 -33.007812 1.90625 -35.0625 C 1.90625 -37.113281 1.90625 -40.242188 1.90625 -44.453125 C 1.90625 -45.671875 2.015625 -47.023438 2.234375 -48.515625 C 2.460938 -50.015625 2.988281 -51.457031 3.8125 -52.84375 C 4.644531 -54.226562 5.972656 -55.363281 7.796875 -56.25 C 9.628906 -57.132812 12.15625 -57.578125 15.375 -57.578125 C 18.53125 -57.578125 21.003906 -57.132812 22.796875 -56.25 C 24.597656 -55.363281 25.914062 -54.226562 26.75 -52.84375 C 27.582031 -51.457031 28.109375 -50.015625 28.328125 -48.515625 C 28.546875 -47.023438 28.65625 -45.671875 28.65625 -44.453125 L 28.65625 -23.09375 C 28.65625 -22.757812 28.796875 -22.492188 29.078125 -22.296875 C 29.359375 -22.109375 29.609375 -22.015625 29.828125 -22.015625 Z M 38.546875 -58.984375 C 37.710938 -58.984375 36.976562 -59.160156 36.34375 -59.515625 C 35.707031 -59.878906 35.332031 -60.09375 35.21875 -60.15625 L 29.984375 -63.3125 L 28.078125 -64.71875 C 27.859375 -64.832031 27.691406 -64.890625 27.578125 -64.890625 C 27.304688 -64.890625 27.113281 -64.734375 27 -64.421875 C 26.882812 -64.117188 26.96875 -63.859375 27.25 -63.640625 L 28.25 -62.890625 L 23.765625 -60.15625 C 23.648438 -60.09375 23.273438 -59.878906 22.640625 -59.515625 C 22.003906 -59.160156 21.269531 -58.984375 20.4375 -58.984375 C 19.9375 -58.984375 19.421875 -59.109375 18.890625 -59.359375 C 18.367188 -59.609375 17.914062 -60.007812 17.53125 -60.5625 C 16.863281 -61.394531 16.53125 -62.421875 16.53125 -63.640625 C 16.53125 -64.359375 16.695312 -65.050781 17.03125 -65.71875 C 17.363281 -66.382812 17.914062 -66.878906 18.6875 -67.203125 L 22.265625 -69.453125 C 24.484375 -70.722656 26.046875 -71.617188 26.953125 -72.140625 C 27.867188 -72.671875 28.460938 -72.992188 28.734375 -73.109375 C 29.015625 -73.222656 29.269531 -73.28125 29.5 -73.28125 C 29.71875 -73.28125 29.960938 -73.207031 30.234375 -73.0625 C 30.515625 -72.925781 31.125 -72.59375 32.0625 -72.0625 C 33.007812 -71.539062 34.535156 -70.671875 36.640625 -69.453125 L 40.296875 -67.203125 C 41.066406 -66.878906 41.617188 -66.382812 41.953125 -65.71875 C 42.285156 -65.050781 42.453125 -64.359375 42.453125 -63.640625 C 42.453125 -62.421875 42.117188 -61.394531 41.453125 -60.5625 C 41.066406 -60.007812 40.609375 -59.609375 40.078125 -59.359375 C 39.554688 -59.109375 39.046875 -58.984375 38.546875 -58.984375 Z M 38.546875 -58.984375 "/></g></g></g><g fill="#f5f5dc" fill-opacity="1"><g transform="translate(256.809273, 267.546882)"><g><path d="M 0.25 -47.265625 C 0.25 -49.765625 0.660156 -51.648438 1.484375 -52.921875 C 2.316406 -54.191406 3.328125 -55.078125 4.515625 -55.578125 C 5.710938 -56.078125 6.894531 -56.351562 8.0625 -56.40625 L 39.796875 -56.40625 C 40.960938 -56.351562 42.148438 -56.078125 43.359375 -55.578125 C 44.578125 -55.078125 45.585938 -54.191406 46.390625 -52.921875 C 47.203125 -51.648438 47.609375 -49.765625 47.609375 -47.265625 C 47.609375 -43.503906 46.898438 -41.015625 45.484375 -39.796875 C 44.066406 -38.578125 42.171875 -37.96875 39.796875 -37.96875 L 37.140625 -37.96875 L 37.140625 -12.125 C 37.140625 -10.90625 37.039062 -9.546875 36.84375 -8.046875 C 36.644531 -6.554688 36.144531 -5.117188 35.34375 -3.734375 C 34.539062 -2.347656 33.265625 -1.210938 31.515625 -0.328125 C 29.773438 0.554688 27.382812 1 24.34375 1 C 21.351562 1 19 0.554688 17.28125 -0.328125 C 15.5625 -1.210938 14.300781 -2.347656 13.5 -3.734375 C 12.695312 -5.117188 12.195312 -6.554688 12 -8.046875 C 11.8125 -9.546875 11.71875 -10.90625 11.71875 -12.125 L 11.71875 -35.5625 L 17.609375 -35.5625 L 17.609375 -37.96875 L 8.0625 -37.96875 C 6.894531 -38.082031 5.710938 -38.375 4.515625 -38.84375 C 3.328125 -39.3125 2.316406 -40.207031 1.484375 -41.53125 C 0.660156 -42.863281 0.25 -44.773438 0.25 -47.265625 Z M 0.25 -47.265625 "/></g></g></g><g fill="#f5f5dc" fill-opacity="1"><g transform="translate(305.241582, 267.546882)"><g><path d="M 46.765625 -47.1875 C 46.765625 -44.3125 46.347656 -42.207031 45.515625 -40.875 C 44.691406 -39.539062 43.679688 -38.707031 42.484375 -38.375 C 41.296875 -38.050781 40.09375 -37.890625 38.875 -37.890625 L 26.671875 -37.890625 L 26.671875 -35.5625 L 36.46875 -35.5625 C 37.46875 -35.5625 38.476562 -35.363281 39.5 -34.96875 C 40.53125 -34.582031 41.40625 -33.847656 42.125 -32.765625 C 42.84375 -31.691406 43.203125 -30.15625 43.203125 -28.15625 C 43.203125 -26.21875 42.84375 -24.707031 42.125 -23.625 C 41.40625 -22.550781 40.53125 -21.820312 39.5 -21.4375 C 38.476562 -21.050781 37.46875 -20.859375 36.46875 -20.859375 L 22.515625 -20.859375 L 22.515625 -18.4375 L 38.96875 -18.4375 C 40.125 -18.382812 41.3125 -18.109375 42.53125 -17.609375 C 43.75 -17.109375 44.757812 -16.207031 45.5625 -14.90625 C 46.363281 -13.601562 46.765625 -11.679688 46.765625 -9.140625 C 46.765625 -6.648438 46.363281 -4.765625 45.5625 -3.484375 C 44.757812 -2.210938 43.75 -1.34375 42.53125 -0.875 C 41.3125 -0.40625 40.125 -0.113281 38.96875 0 L 11.875 0 C 9.769531 0 8.09375 -0.414062 6.84375 -1.25 C 5.601562 -2.082031 4.691406 -3.078125 4.109375 -4.234375 C 3.523438 -5.398438 3.148438 -6.550781 2.984375 -7.6875 C 2.816406 -8.820312 2.734375 -9.722656 2.734375 -10.390625 L 2.734375 -46.03125 C 2.734375 -46.6875 2.816406 -47.582031 2.984375 -48.71875 C 3.148438 -49.851562 3.523438 -51.003906 4.109375 -52.171875 C 4.691406 -53.335938 5.601562 -54.332031 6.84375 -55.15625 C 8.09375 -55.988281 9.769531 -56.40625 11.875 -56.40625 L 38.96875 -56.40625 C 40.125 -56.351562 41.3125 -56.078125 42.53125 -55.578125 C 43.75 -55.078125 44.757812 -54.191406 45.5625 -52.921875 C 46.363281 -51.648438 46.765625 -49.738281 46.765625 -47.1875 Z M 46.765625 -47.1875 "/></g></g></g></svg>